# xmcd
#
# Track frame offsets: 
#        150
#        15292
#        28872
#        44200
#        63407
#        80785
#        100615
#        127945
#        146695
#        164590
#        181897
#        202127
#        222722
#
# Disc length: 3094 seconds
#
# Revision: 1
# Processed by: cddbd v1.5.2PL0 Copyright (c) Steve Scherf et al.
# Submitted via: ExactAudioCopy v1.0b4
#
DISCID=c30c140d
DTITLE=Little JC and His Blues Band - Before They Drive Me Crazy
DYEAR=1996
DGENRE=Blues
TTITLE0=Before They Drive Me crazy
TTITLE1=I'm SoTired
TTITLE2=I Don't Play
TTITLE3=Little Girl
TTITLE4=Cross My Heart
TTITLE5=World Is In A Bad Shape
TTITLE6=Don't Mess With My Baby
TTITLE7=That's Alright
TTITLE8=I'm A Fool
TTITLE9=I'm Gonna Leave This Town
TTITLE10=Relax
TTITLE11=Well I'm Gone
TTITLE12=You're Gonna Be Sorry
EXTD=
EXTT0=
EXTT1=
EXTT2=
EXTT3=
EXTT4=
EXTT5=
EXTT6=
EXTT7=
EXTT8=
EXTT9=
EXTT10=
EXTT11=
EXTT12=
PLAYORDER=
